<svg xmlns="http://www.w3.org/2000/svg" version="1.1" xmlns:xlink="http://www.w3.org/1999/xlink" xmlns:svgjs="http://svgjs.com/svgjs" width="184.6px" height="184.9px"><svg version="1.1" xmlns="http://www.w3.org/2000/svg" xmlns:xlink="http://www.w3.org/1999/xlink" x="0px" y="0px" width="184.6px" height="184.9px" viewBox="0 0 184.6 184.9" style="overflow:visible;enable-background:new 0 0 184.6 184.9;" xml:space="preserve">
<style type="text/css">
	.st0{fill:#3b82f6;}
</style>
<defs>
</defs>
<path class="st0" d="M92.2,184.9C40.1,183.6-0.2,143.7,0,92.1C0.2,39.8,41.1-0.1,92.2,0c52.5,0.1,92.7,41.1,92.5,92.8
	C184.4,144.5,143.9,183.8,92.2,184.9z M21.3,102.6c1.7,27.8,30.1,64.1,74.6,62c41.3-1.9,66.4-37.2,67.3-61.9c-9.2,0-18.5,0-28.1,0
	c-8.9,12.7-17.8,25.6-27.4,39.4c-11.1-21.4-21.7-41.7-32.7-62.8c-5.3,8.2-10.2,15.6-15.2,23.3C46.8,102.6,34.1,102.6,21.3,102.6z
	 M163.4,82c-1.9-27.8-29.7-62.9-72.6-62.1C49.2,20.8,23,55.4,21.3,81.9c9.2,0,18.4,0,28.1,0c8.8-13.7,17.8-27.5,27.2-42.2
	c1.5,2.6,2.4,4.2,3.3,5.9c9.4,18.1,18.8,36.2,28.2,54.2c0.5,1.1,1.3,2,2.2,3.3c5.1-7.3,9.8-14,14.8-21.1C138,82,150.7,82,163.4,82z"></path>
</svg><style>@media (prefers-color-scheme: light) { :root { filter: none; } }
</style></svg>